<svg xmlns="http://www.w3.org/2000/svg" version="1.1" xmlns:xlink="http://www.w3.org/1999/xlink" width="1000" height="1000"><style>
    #light-icon {
      display: inline;
    }
    #dark-icon {
      display: none;
    }

    @media (prefers-color-scheme: dark) {
      #light-icon {
        display: none;
      }
      #dark-icon {
        display: inline;
      }
    }
  </style><g id="light-icon"><svg xmlns="http://www.w3.org/2000/svg" version="1.1" xmlns:xlink="http://www.w3.org/1999/xlink" width="1000" height="1000"><g clip-path="url(#SvgjsClipPath1333)"><rect width="1000" height="1000" fill="#1d1e20"></rect><g transform="matrix(5,0,0,5,0,0)"><svg xmlns="http://www.w3.org/2000/svg" version="1.1" xmlns:xlink="http://www.w3.org/1999/xlink" viewBox="0 0 200 200" width="200" height="200"><rect width="200" height="200" fill="url('#gradient')"></rect><defs><linearGradient id="gradient" gradientTransform="rotate(0 0.5 0.5)"><stop offset="0%" stop-color="#1d1e20"></stop><stop offset="100%" stop-color="#1d1e20"></stop></linearGradient><clipPath id="SvgjsClipPath1333"><rect width="1000" height="1000" x="0" y="0" rx="500" ry="500"></rect></clipPath></defs><g><g fill="#668eff" transform="matrix(2.7730515191545573,0,0,2.7730515191545573,15.039775279357166,120.51927636783503)" stroke="#64637b" stroke-width="0"><path d="M1.07-14.22L5.58-14.22L8.75-4.33L11.91-14.22L16.43-14.22L16.43 0L12.99 0L12.99-3.32L13.32-10.12L9.88 0L7.62 0L4.17-10.13L4.50-3.32L4.50 0L1.07 0L1.07-14.22ZM20.49-3.19L20.49-3.19Q21.27-3.19 21.79-2.73Q22.30-2.27 22.30-1.54Q22.30-0.82 21.79-0.36Q21.27 0.11 20.49 0.11L20.49 0.11Q19.70 0.11 19.18-0.36Q18.67-0.83 18.67-1.54Q18.67-2.26 19.18-2.72Q19.70-3.19 20.49-3.19ZM27.34-14.22L30.17-3.87L33.00-14.22L36.83-14.22L32.04 0L28.29 0L23.54-14.22L27.34-14.22ZM36.87-5.36L36.87-5.36Q36.87-7.87 37.95-9.32Q39.03-10.76 40.98-10.76L40.98-10.76Q42.39-10.76 43.36-9.65L43.36-9.65L43.36-15L46.66-15L46.66 0L43.70 0L43.54-1.13Q42.52 0.20 40.96 0.20L40.96 0.20Q39.07 0.20 37.97-1.25Q36.87-2.70 36.87-5.36ZM40.17-5.76L40.16-5.16Q40.16-2.34 41.80-2.34L41.80-2.34Q42.89-2.34 43.36-3.26L43.36-3.26L43.36-7.29Q42.91-8.22 41.82-8.22L41.82-8.22Q40.29-8.22 40.17-5.76L40.17-5.76ZM56.78-4.81L60.19-4.81Q60.12-3.33 59.38-2.19Q58.65-1.05 57.33-0.43Q56.01 0.20 54.31 0.20L54.31 0.20Q51.50 0.20 49.89-1.63Q48.28-3.46 48.28-6.79L48.28-6.79L48.28-7.49Q48.28-9.58 49.01-11.15Q49.74-12.71 51.10-13.57Q52.47-14.42 54.27-14.42L54.27-14.42Q56.86-14.42 58.43-13.06Q60-11.70 60.21-9.31L60.21-9.31L56.80-9.31Q56.76-10.61 56.14-11.17Q55.53-11.74 54.27-11.74L54.27-11.74Q52.99-11.74 52.39-10.78Q51.80-9.82 51.77-7.72L51.77-7.72L51.77-6.72Q51.77-4.44 52.34-3.47Q52.91-2.49 54.31-2.49L54.31-2.49Q55.49-2.49 56.11-3.05Q56.74-3.60 56.78-4.81L56.78-4.81Z"></path></g></g></svg></g></g></svg></g><g id="dark-icon"><svg xmlns="http://www.w3.org/2000/svg" version="1.1" xmlns:xlink="http://www.w3.org/1999/xlink" width="1000" height="1000"><g clip-path="url(#SvgjsClipPath1334)"><rect width="1000" height="1000" fill="#1d1e20"></rect><g transform="matrix(5,0,0,5,0,0)"><svg xmlns="http://www.w3.org/2000/svg" version="1.1" xmlns:xlink="http://www.w3.org/1999/xlink" viewBox="0 0 200 200" width="200" height="200"><rect width="200" height="200" fill="url('#gradient')"></rect><defs><linearGradient id="gradient" gradientTransform="rotate(0 0.5 0.5)"><stop offset="0%" stop-color="#1d1e20"></stop><stop offset="100%" stop-color="#1d1e20"></stop></linearGradient><clipPath id="SvgjsClipPath1334"><rect width="1000" height="1000" x="0" y="0" rx="200" ry="200"></rect></clipPath></defs><g><g fill="#668eff" transform="matrix(2.7730515191545573,0,0,2.7730515191545573,15.039775279357166,120.51927636783503)" stroke="#64637b" stroke-width="0"><path d="M1.07-14.22L5.58-14.22L8.75-4.33L11.91-14.22L16.43-14.22L16.43 0L12.99 0L12.99-3.32L13.32-10.12L9.88 0L7.62 0L4.17-10.13L4.50-3.32L4.50 0L1.07 0L1.07-14.22ZM20.49-3.19L20.49-3.19Q21.27-3.19 21.79-2.73Q22.30-2.27 22.30-1.54Q22.30-0.82 21.79-0.36Q21.27 0.11 20.49 0.11L20.49 0.11Q19.70 0.11 19.18-0.36Q18.67-0.83 18.67-1.54Q18.67-2.26 19.18-2.72Q19.70-3.19 20.49-3.19ZM27.34-14.22L30.17-3.87L33.00-14.22L36.83-14.22L32.04 0L28.29 0L23.54-14.22L27.34-14.22ZM36.87-5.36L36.87-5.36Q36.87-7.87 37.95-9.32Q39.03-10.76 40.98-10.76L40.98-10.76Q42.39-10.76 43.36-9.65L43.36-9.65L43.36-15L46.66-15L46.66 0L43.70 0L43.54-1.13Q42.52 0.20 40.96 0.20L40.96 0.20Q39.07 0.20 37.97-1.25Q36.87-2.70 36.87-5.36ZM40.17-5.76L40.16-5.16Q40.16-2.34 41.80-2.34L41.80-2.34Q42.89-2.34 43.36-3.26L43.36-3.26L43.36-7.29Q42.91-8.22 41.82-8.22L41.82-8.22Q40.29-8.22 40.17-5.76L40.17-5.76ZM56.78-4.81L60.19-4.81Q60.12-3.33 59.38-2.19Q58.65-1.05 57.33-0.43Q56.01 0.20 54.31 0.20L54.31 0.20Q51.50 0.20 49.89-1.63Q48.28-3.46 48.28-6.79L48.28-6.79L48.28-7.49Q48.28-9.58 49.01-11.15Q49.74-12.71 51.10-13.57Q52.47-14.42 54.27-14.42L54.27-14.42Q56.86-14.42 58.43-13.06Q60-11.70 60.21-9.31L60.21-9.31L56.80-9.31Q56.76-10.61 56.14-11.17Q55.53-11.74 54.27-11.74L54.27-11.74Q52.99-11.74 52.39-10.78Q51.80-9.82 51.77-7.72L51.77-7.72L51.77-6.72Q51.77-4.44 52.34-3.47Q52.91-2.49 54.31-2.49L54.31-2.49Q55.49-2.49 56.11-3.05Q56.74-3.60 56.78-4.81L56.78-4.81Z"></path></g></g></svg></g></g></svg></g></svg>